<svg id="svg" version="1.1" xmlns="http://www.w3.org/2000/svg" xmlns:xlink="http://www.w3.org/1999/xlink" width="400" height="542.7354472314246" viewBox="0, 0, 400,542.7354472314246"><g id="svgg"><path id="path0" d="M192.195 47.195 C 169.283 48.949,151.801 59.339,139.613 78.444 C 138.905 79.555,135.703 85.852,135.325 86.878 C 135.164 87.313,134.650 88.688,134.182 89.932 C 133.714 91.176,133.150 92.872,132.928 93.699 L 132.524 95.204 126.952 95.313 C 99.172 95.860,78.835 119.084,82.223 146.393 C 84.868 167.717,103.044 184.468,124.887 185.712 L 127.489 185.860 127.602 200.000 C 127.731 216.115,127.598 215.054,129.777 217.331 C 134.872 222.654,144.938 222.947,160.181 218.216 C 183.477 210.987,207.564 210.999,230.861 218.252 C 247.698 223.495,258.727 222.456,262.519 215.271 L 263.235 213.914 263.300 199.864 L 263.365 185.815 266.128 185.675 C 279.893 184.980,293.210 177.498,300.965 166.102 C 321.529 135.882,300.612 95.993,263.841 95.305 C 259.974 95.233,258.318 95.125,258.268 94.943 C 253.396 77.181,241.143 62.270,224.661 54.049 C 214.743 49.102,202.116 46.436,192.195 47.195 M204.751 58.001 C 211.175 59.159,216.959 61.218,222.455 64.302 C 224.729 65.579,224.841 65.730,223.360 65.520 C 219.671 64.999,218.408 64.916,214.027 64.911 C 183.632 64.871,157.926 84.634,150.140 114.027 C 148.351 120.781,147.686 131.883,148.697 138.119 C 149.144 140.878,149.147 140.874,148.004 138.978 C 140.826 127.076,138.637 111.550,142.221 97.964 C 148.036 75.919,167.067 59.809,190.158 57.385 C 193.161 57.070,201.552 57.424,204.751 58.001 M130.696 105.034 C 130.621 105.812,130.492 107.437,130.408 108.646 L 130.256 110.843 128.759 111.336 C 109.174 117.788,95.800 136.038,95.701 156.448 C 95.685 159.746,95.643 159.771,94.345 157.228 C 82.834 134.675,96.767 107.961,122.172 103.873 C 122.856 103.763,125.085 103.661,127.124 103.646 L 130.832 103.620 130.696 105.034 M197.933 167.631 C 199.295 168.326,200.314 169.506,200.752 170.896 C 201.331 172.731,201.321 191.441,200.741 193.238 C 199.141 198.192,191.565 198.196,190.082 193.245 C 189.711 192.007,189.714 172.010,190.085 170.771 C 191.000 167.716,194.979 166.124,197.933 167.631 M173.228 176.658 C 174.281 177.196,175.486 178.487,175.933 179.558 C 176.422 180.728,176.386 201.484,175.894 202.666 C 174.070 207.038,167.854 207.188,165.574 202.914 L 165.045 201.923 165.045 191.063 C 165.045 180.235,165.047 180.201,165.554 179.251 C 167.072 176.411,170.484 175.258,173.228 176.658 M222.133 176.441 C 223.590 177.032,224.539 177.892,225.201 179.219 L 225.792 180.406 225.792 191.067 L 225.792 201.729 225.170 202.956 C 223.147 206.944,217.504 207.102,215.230 203.234 L 214.593 202.149 214.593 191.063 L 214.593 179.977 215.220 178.910 C 216.639 176.496,219.633 175.426,222.133 176.441 M159.018 239.255 C 157.677 239.685,155.845 241.327,155.165 242.709 L 154.638 243.778 154.638 307.579 C 154.638 375.196,154.609 373.210,155.677 377.489 C 157.930 386.514,161.030 391.744,168.886 399.774 C 178.252 409.347,183.378 417.430,187.094 428.488 C 190.640 439.042,191.016 443.896,190.302 469.910 C 190.044 479.304,189.775 489.536,189.703 492.647 C 189.632 495.758,189.375 505.379,189.132 514.027 C 188.889 522.675,188.688 531.176,188.686 532.919 C 188.683 534.661,188.590 536.230,188.479 536.406 C 188.143 536.936,191.445 540.724,192.243 540.724 C 192.403 540.724,192.534 540.803,192.534 540.899 C 192.534 541.094,193.391 541.546,195.249 542.332 C 197.758 543.393,204.171 543.146,205.375 541.943 C 205.537 541.781,205.819 541.706,206.002 541.776 C 206.185 541.846,206.335 541.813,206.335 541.702 C 206.335 541.451,207.733 540.598,208.006 540.682 C 208.220 540.749,208.159 537.543,207.461 511.878 C 207.220 503.043,206.919 491.335,206.791 485.860 C 206.663 480.385,206.395 470.305,206.196 463.462 C 205.719 447.106,205.944 442.863,207.693 435.215 C 210.808 421.591,217.024 410.578,227.554 400.024 C 235.416 392.145,238.827 386.489,240.938 377.828 C 242.141 372.893,242.116 374.543,242.039 306.674 L 241.968 243.552 241.458 242.597 C 238.498 237.057,230.466 238.030,229.037 244.102 C 228.797 245.120,228.739 254.635,228.737 293.681 L 228.733 342.000 228.111 343.227 C 226.093 347.206,220.439 347.364,218.171 343.505 L 217.534 342.421 217.421 293.213 L 217.308 244.005 216.498 242.534 C 213.823 237.676,207.307 237.710,204.696 242.597 L 204.186 243.552 204.072 292.873 L 203.959 342.195 203.470 343.100 C 201.307 347.101,196.155 347.415,193.559 343.702 L 192.873 342.721 192.760 293.589 L 192.647 244.457 192.139 243.203 C 189.937 237.763,182.511 237.463,179.935 242.709 L 179.299 244.005 179.186 293.363 L 179.072 342.721 178.387 343.702 C 175.791 347.415,170.639 347.101,168.476 343.100 L 167.986 342.195 167.873 292.986 L 167.760 243.778 167.250 242.823 C 165.526 239.597,162.305 238.201,159.018 239.255 " stroke="none" fill="#040404" fill-rule="evenodd"></path><path id="path1" d="M187.783 0.155 C 187.223 0.196,185.187 0.389,183.258 0.582 C 181.329 0.776,178.642 1.025,177.285 1.137 C 172.008 1.570,160.523 3.548,154.072 5.135 C 153.264 5.334,151.787 5.678,150.792 5.900 C 149.796 6.122,148.536 6.463,147.992 6.658 C 147.447 6.854,146.837 7.012,146.634 7.010 C 146.432 7.008,145.452 7.258,144.457 7.567 C 137.920 9.592,134.986 10.526,133.597 11.023 C 129.370 12.538,126.326 13.699,124.180 14.615 C 123.480 14.914,122.828 15.158,122.732 15.158 C 122.635 15.158,122.037 15.400,121.403 15.695 C 120.768 15.990,118.925 16.819,117.308 17.538 C 111.565 20.089,103.914 24.012,98.900 26.978 C 98.323 27.319,97.615 27.701,97.326 27.827 C 97.038 27.952,96.468 28.309,96.060 28.620 C 95.653 28.931,95.237 29.186,95.136 29.186 C 95.035 29.186,94.619 29.440,94.211 29.751 C 93.803 30.062,93.418 30.317,93.355 30.317 C 93.293 30.317,92.599 30.753,91.813 31.287 C 91.027 31.820,89.679 32.699,88.816 33.239 C 87.954 33.780,87.139 34.311,87.006 34.420 C 86.873 34.529,86.052 35.095,85.181 35.679 C 84.310 36.263,83.495 36.827,83.371 36.931 C 83.148 37.118,80.913 38.778,78.054 40.881 C 77.245 41.476,75.922 42.499,75.113 43.154 C 74.304 43.810,73.350 44.574,72.993 44.854 C 72.635 45.133,72.228 45.465,72.088 45.590 C 71.947 45.716,71.171 46.363,70.362 47.030 C 62.690 53.351,52.690 63.444,45.304 72.322 C 43.320 74.706,41.301 77.200,40.818 77.865 C 40.334 78.529,39.857 79.174,39.757 79.299 C 39.657 79.423,38.973 80.339,38.237 81.335 C 37.501 82.330,36.708 83.399,36.474 83.710 C 35.807 84.597,33.194 88.407,32.692 89.224 C 32.443 89.629,32.011 90.248,31.731 90.599 C 31.451 90.950,31.222 91.330,31.222 91.443 C 31.222 91.556,31.114 91.771,30.982 91.921 C 30.653 92.297,28.617 95.488,28.036 96.539 C 27.775 97.012,27.219 97.958,26.802 98.643 C 26.384 99.327,25.852 100.243,25.619 100.679 C 25.387 101.114,24.834 102.132,24.390 102.941 C 22.319 106.721,20.834 109.541,20.043 111.199 C 17.154 117.252,17.449 116.600,14.580 123.303 C 14.288 123.988,13.681 125.515,13.233 126.697 C 12.784 127.879,12.274 129.202,12.098 129.638 C 11.210 131.839,9.253 137.806,7.609 143.326 C 6.625 146.628,5.015 153.081,4.110 157.353 C 2.881 163.156,1.466 171.937,1.139 175.792 C 1.028 177.098,0.755 179.847,0.532 181.900 C -0.131 187.988,-0.071 205.078,0.631 210.294 C 1.581 217.355,2.784 223.832,4.014 228.507 C 4.325 229.689,4.654 231.063,4.745 231.561 C 4.912 232.479,5.519 234.702,6.443 237.783 C 6.723 238.716,7.235 240.447,7.580 241.629 C 7.926 242.811,8.434 244.440,8.710 245.249 C 8.987 246.058,9.530 247.687,9.919 248.869 C 10.630 251.032,11.772 254.290,12.775 257.014 C 13.073 257.822,13.563 259.155,13.864 259.976 C 14.165 260.796,14.579 261.805,14.785 262.217 C 14.990 262.628,15.158 263.106,15.158 263.278 C 15.158 263.449,15.413 264.092,15.724 264.706 C 16.035 265.320,16.290 265.934,16.290 266.070 C 16.290 266.207,16.544 266.875,16.855 267.555 C 17.166 268.235,17.421 268.848,17.421 268.917 C 17.421 268.986,17.731 269.772,18.110 270.663 C 18.489 271.555,18.991 272.743,19.226 273.303 C 20.411 276.135,24.580 285.588,25.213 286.878 C 25.365 287.189,25.749 288.003,26.066 288.688 C 27.967 292.793,29.438 295.814,33.282 303.507 C 37.128 311.203,40.082 316.972,41.681 319.910 C 41.986 320.469,42.671 321.742,43.204 322.738 C 43.737 323.733,44.706 325.515,45.358 326.697 C 46.010 327.879,46.927 329.553,47.395 330.418 C 47.863 331.282,48.488 332.402,48.782 332.906 C 49.077 333.411,49.883 334.842,50.575 336.086 C 51.266 337.330,52.130 338.857,52.494 339.480 C 52.858 340.102,53.314 340.916,53.507 341.290 C 53.700 341.663,54.160 342.477,54.529 343.100 C 54.898 343.722,55.480 344.729,55.824 345.337 C 56.167 345.945,56.550 346.609,56.674 346.812 C 56.799 347.015,57.194 347.688,57.554 348.308 C 58.312 349.615,61.317 354.692,61.651 355.229 C 61.776 355.429,62.159 356.091,62.502 356.699 C 63.081 357.726,64.642 360.304,65.157 361.086 C 65.280 361.273,65.634 361.883,65.944 362.443 C 66.254 363.003,67.119 364.429,67.867 365.611 C 68.615 366.793,69.433 368.117,69.685 368.552 C 69.937 368.988,70.656 370.158,71.283 371.154 C 71.910 372.149,72.748 373.507,73.146 374.171 C 73.543 374.836,74.021 375.614,74.208 375.900 C 74.395 376.187,74.904 377.004,75.339 377.715 C 75.775 378.426,76.284 379.243,76.471 379.529 C 76.657 379.816,77.109 380.543,77.474 381.145 C 77.839 381.747,78.577 382.883,79.114 383.668 C 79.651 384.454,80.090 385.155,80.090 385.226 C 80.090 385.298,80.574 386.080,81.165 386.965 C 81.756 387.851,82.291 388.676,82.353 388.801 C 82.415 388.925,82.765 389.485,83.130 390.045 C 83.495 390.605,84.117 391.572,84.512 392.195 C 84.907 392.817,85.524 393.773,85.884 394.320 C 86.244 394.866,86.640 395.481,86.765 395.686 C 87.612 397.082,88.628 398.596,88.967 398.968 C 89.187 399.209,89.367 399.496,89.367 399.605 C 89.367 399.715,89.596 400.128,89.876 400.524 C 90.156 400.920,90.487 401.411,90.611 401.616 C 90.736 401.820,91.407 402.838,92.104 403.878 C 93.596 406.104,97.287 411.711,97.620 412.257 C 97.854 412.642,100.777 416.962,105.092 423.303 C 106.405 425.232,107.954 427.523,108.535 428.394 C 109.116 429.265,109.679 430.079,109.786 430.204 C 110.001 430.454,111.132 432.094,113.685 435.860 C 114.612 437.229,115.980 439.214,116.725 440.271 C 119.643 444.419,120.258 445.308,120.500 445.731 C 120.638 445.973,120.949 446.396,121.190 446.671 C 121.431 446.947,122.001 447.732,122.457 448.416 C 122.912 449.101,123.595 450.093,123.973 450.622 C 124.351 451.151,124.941 451.978,125.283 452.460 C 128.136 456.478,128.948 457.618,129.638 458.571 C 130.074 459.173,130.837 460.247,131.335 460.957 C 131.833 461.667,132.774 462.954,133.428 463.816 C 134.081 464.678,134.615 465.467,134.615 465.570 C 134.615 465.674,134.870 465.997,135.181 466.290 C 135.492 466.582,135.747 466.956,135.747 467.121 C 135.747 467.286,135.825 467.421,135.920 467.421 C 136.015 467.421,136.448 467.943,136.881 468.581 C 138.017 470.252,138.264 470.595,141.516 475.017 C 143.133 477.216,144.686 479.334,144.967 479.723 C 145.247 480.112,145.733 480.786,146.047 481.222 C 146.361 481.657,146.895 482.381,147.234 482.830 C 147.573 483.279,148.404 484.424,149.080 485.375 C 149.756 486.326,150.392 487.104,150.494 487.104 C 150.596 487.104,150.679 487.218,150.679 487.357 C 150.679 487.496,150.959 487.945,151.301 488.355 C 151.643 488.765,152.178 489.472,152.489 489.926 C 152.800 490.380,153.386 491.178,153.791 491.699 C 154.196 492.220,154.604 492.750,154.696 492.875 C 156.182 494.891,158.155 497.536,159.551 499.385 C 160.511 500.657,161.784 502.345,162.379 503.138 C 162.975 503.930,163.742 504.911,164.084 505.317 C 164.426 505.723,164.706 506.164,164.706 506.297 C 164.706 506.430,164.833 506.620,164.989 506.720 C 165.144 506.819,166.034 507.919,166.966 509.163 C 167.899 510.407,168.738 511.527,168.831 511.652 C 168.925 511.776,169.333 512.302,169.738 512.820 C 170.144 513.338,171.014 514.458,171.672 515.308 C 172.331 516.159,173.807 518.064,174.953 519.541 C 176.099 521.019,177.138 522.393,177.262 522.596 C 177.387 522.798,177.542 523.015,177.608 523.077 C 177.673 523.139,178.075 523.648,178.500 524.208 C 178.926 524.768,180.038 526.193,180.973 527.376 C 181.907 528.558,183.107 530.085,183.639 530.769 C 184.171 531.454,184.807 532.268,185.053 532.579 C 185.298 532.890,186.082 533.885,186.794 534.790 C 187.506 535.696,188.158 536.357,188.243 536.261 C 188.388 536.096,188.866 519.959,189.374 498.077 C 189.498 492.726,189.759 483.207,189.954 476.923 C 190.148 470.639,190.325 460.560,190.346 454.525 L 190.385 443.552 189.743 439.932 C 186.844 423.581,180.931 412.315,168.666 399.774 C 160.510 391.434,157.571 386.326,155.259 376.471 L 154.648 373.869 154.584 308.762 L 154.520 243.656 154.985 242.745 C 157.749 237.326,164.954 237.442,167.498 242.947 L 167.986 244.005 168.100 293.100 L 168.213 342.195 168.702 343.100 C 171.190 347.702,178.009 346.807,178.938 341.757 C 179.112 340.814,179.185 326.122,179.184 292.323 C 179.183 237.757,178.988 242.971,181.116 240.815 C 184.490 237.398,189.960 238.319,192.100 242.666 L 192.647 243.778 192.760 292.873 L 192.873 341.968 193.410 343.050 C 195.422 347.100,201.066 347.128,203.244 343.100 L 203.733 342.195 203.846 292.986 L 203.959 243.778 204.446 242.726 C 206.955 237.297,214.351 237.445,216.945 242.976 L 217.534 244.231 217.647 293.439 L 217.760 342.647 218.386 343.569 C 220.836 347.176,226.099 346.905,228.057 343.071 L 228.620 341.968 228.733 292.760 L 228.846 243.552 229.357 242.597 C 232.052 237.553,238.634 237.394,241.473 242.304 L 242.195 243.552 242.195 308.371 L 242.195 373.190 241.570 376.001 C 239.346 386.019,236.071 391.778,228.050 399.782 C 221.312 406.504,217.618 411.477,213.770 419.005 C 212.261 421.956,211.995 422.555,210.707 425.905 C 205.987 438.175,205.668 442.888,206.892 482.240 C 207.074 488.088,207.282 496.029,207.355 499.887 C 207.485 506.718,208.328 537.700,208.432 539.452 L 208.484 540.329 209.729 539.057 C 210.413 538.357,211.227 537.457,211.538 537.058 C 211.850 536.658,212.889 535.308,213.847 534.059 C 216.305 530.857,217.810 528.922,219.118 527.283 C 219.740 526.503,220.809 525.130,221.493 524.233 C 222.949 522.323,225.520 519.023,226.478 517.832 C 226.847 517.374,227.149 516.906,227.149 516.792 C 227.149 516.679,227.334 516.418,227.561 516.214 C 227.787 516.009,228.809 514.746,229.832 513.407 C 230.855 512.068,232.426 510.020,233.323 508.855 C 234.221 507.690,235.107 506.505,235.294 506.222 C 235.481 505.938,236.346 504.779,237.217 503.647 C 238.088 502.514,239.564 500.568,240.498 499.321 C 241.431 498.075,242.907 496.128,243.778 494.996 C 244.649 493.863,245.515 492.707,245.701 492.427 C 245.888 492.146,246.490 491.318,247.040 490.585 C 247.590 489.853,248.752 488.286,249.623 487.104 C 250.494 485.922,251.469 484.612,251.791 484.193 C 252.112 483.773,252.528 483.205,252.715 482.929 C 253.345 481.999,255.086 479.615,255.769 478.747 C 256.143 478.273,257.137 476.930,257.979 475.764 C 258.821 474.597,259.992 472.991,260.581 472.196 C 261.170 471.400,261.753 470.590,261.878 470.396 C 262.002 470.202,262.564 469.428,263.127 468.676 C 263.690 467.923,264.351 467.013,264.598 466.654 C 264.844 466.294,265.275 465.683,265.555 465.296 C 265.836 464.909,266.319 464.236,266.629 463.801 C 266.939 463.365,267.422 462.692,267.703 462.304 C 267.983 461.916,268.773 460.808,269.457 459.842 C 270.141 458.875,270.926 457.767,271.201 457.379 C 271.476 456.992,272.188 455.997,272.785 455.170 C 273.381 454.343,274.378 452.933,275.000 452.036 C 275.622 451.140,276.239 450.290,276.371 450.147 C 276.579 449.922,278.392 447.334,279.412 445.808 C 279.771 445.271,281.048 443.440,283.272 440.271 C 285.321 437.355,287.191 434.641,287.443 434.220 C 287.568 434.012,287.771 433.728,287.896 433.588 C 288.118 433.338,291.416 428.552,292.081 427.515 C 292.457 426.929,296.196 421.420,298.443 418.141 C 299.237 416.982,299.992 415.862,300.120 415.653 C 300.330 415.309,301.401 413.712,302.422 412.217 C 303.776 410.236,307.240 404.944,307.240 404.857 C 307.240 404.800,307.733 404.061,308.336 403.216 C 308.939 402.371,309.474 401.582,309.524 401.462 C 309.608 401.262,310.624 399.699,314.004 394.570 C 314.701 393.512,315.323 392.545,315.385 392.421 C 315.447 392.296,315.965 391.482,316.535 390.611 C 317.105 389.740,317.614 388.925,317.666 388.801 C 317.718 388.676,318.549 387.377,319.514 385.912 C 320.478 384.448,321.267 383.215,321.267 383.172 C 321.267 383.129,321.751 382.340,322.342 381.418 C 323.872 379.030,324.964 377.276,325.679 376.056 C 325.803 375.843,326.134 375.350,326.414 374.960 C 326.694 374.570,326.923 374.184,326.923 374.102 C 326.923 374.019,327.178 373.618,327.489 373.210 C 327.800 372.802,328.054 372.392,328.054 372.299 C 328.054 372.205,328.283 371.810,328.563 371.420 C 328.843 371.030,329.174 370.535,329.299 370.321 C 329.423 370.106,330.645 368.098,332.014 365.859 C 333.382 363.620,334.655 361.503,334.842 361.154 C 335.029 360.806,335.390 360.215,335.645 359.842 C 335.900 359.468,336.230 358.908,336.378 358.597 C 336.527 358.286,337.056 357.385,337.555 356.595 C 338.054 355.805,338.462 355.108,338.462 355.046 C 338.462 354.985,338.653 354.664,338.888 354.334 C 339.122 354.003,339.516 353.377,339.763 352.941 C 340.011 352.506,340.752 351.233,341.409 350.113 C 343.411 346.706,344.776 344.334,346.426 341.394 C 346.738 340.839,347.442 339.621,347.990 338.688 C 348.539 337.755,349.118 336.736,349.278 336.425 C 349.437 336.114,349.803 335.452,350.090 334.955 C 350.377 334.457,350.919 333.490,351.294 332.805 C 351.668 332.121,352.178 331.202,352.426 330.762 C 352.675 330.323,353.314 329.152,353.848 328.161 C 354.382 327.169,355.312 325.466,355.916 324.377 C 356.520 323.288,357.014 322.344,357.014 322.280 C 357.014 322.216,357.252 321.783,357.544 321.319 C 358.812 319.302,366.537 304.193,370.353 296.267 C 371.372 294.152,372.451 291.912,372.751 291.290 C 373.679 289.367,377.399 281.191,378.515 278.620 C 379.703 275.884,380.679 273.576,381.986 270.419 C 382.283 269.703,382.705 268.710,382.924 268.213 C 383.144 267.715,383.552 266.697,383.831 265.950 C 384.110 265.204,384.618 263.880,384.959 263.009 C 388.179 254.781,391.605 244.777,393.520 238.009 C 396.987 225.755,398.706 217.093,399.793 206.409 C 400.165 202.761,399.927 185.482,399.451 181.448 C 399.252 179.768,398.993 177.223,398.874 175.792 C 398.210 167.772,394.866 151.045,392.406 143.432 C 392.103 142.495,391.855 141.581,391.855 141.401 C 391.855 141.220,391.618 140.409,391.327 139.598 C 391.037 138.786,390.512 137.206,390.162 136.086 C 389.811 134.966,389.279 133.388,388.980 132.579 C 388.681 131.770,388.174 130.396,387.853 129.525 C 386.956 127.093,386.014 124.682,385.399 123.247 C 385.092 122.531,384.578 121.309,384.255 120.532 C 383.214 118.021,382.675 116.858,379.989 111.312 C 378.571 108.387,376.617 104.620,375.645 102.941 C 375.393 102.506,374.848 101.538,374.433 100.792 C 373.339 98.820,371.545 95.777,370.633 94.344 C 370.197 93.660,369.616 92.743,369.342 92.308 C 368.917 91.635,367.559 89.576,366.290 87.683 C 366.103 87.404,365.684 86.777,365.359 86.288 C 364.662 85.243,361.826 81.316,361.101 80.393 C 360.824 80.040,359.969 78.925,359.201 77.916 C 357.302 75.419,353.730 71.020,352.150 69.231 C 351.435 68.422,350.175 66.998,349.350 66.066 C 347.619 64.109,337.930 54.360,335.735 52.365 C 334.919 51.624,333.840 50.642,333.336 50.182 C 332.832 49.722,331.005 48.169,329.275 46.729 C 327.546 45.290,325.979 43.977,325.792 43.813 C 325.324 43.402,320.841 39.985,320.403 39.706 C 320.207 39.581,319.860 39.316,319.630 39.115 C 319.401 38.915,318.632 38.356,317.921 37.874 C 317.210 37.392,316.578 36.936,316.516 36.862 C 316.370 36.687,310.410 32.579,310.303 32.579 C 310.270 32.579,309.472 32.070,308.528 31.448 C 307.584 30.826,306.749 30.317,306.672 30.317 C 306.594 30.317,306.197 30.062,305.789 29.751 C 305.381 29.440,304.974 29.186,304.884 29.186 C 304.793 29.186,304.294 28.894,303.774 28.538 C 302.197 27.458,293.338 22.615,289.367 20.662 C 285.595 18.807,284.525 18.309,281.448 16.976 C 280.515 16.572,279.494 16.107,279.180 15.943 C 278.865 15.779,277.898 15.371,277.030 15.037 C 276.162 14.702,274.943 14.229,274.321 13.985 C 267.039 11.129,262.317 9.529,255.430 7.584 C 250.826 6.284,249.346 5.895,246.946 5.350 C 245.577 5.039,243.272 4.516,241.824 4.187 C 240.376 3.857,238.646 3.507,237.978 3.408 C 237.311 3.309,235.594 3.018,234.163 2.762 C 229.685 1.960,225.281 1.346,222.372 1.119 C 220.831 0.998,219.316 0.850,219.005 0.790 C 215.795 0.165,193.690 -0.285,187.783 0.155 M204.126 47.533 C 212.191 48.638,220.561 51.367,226.784 54.922 C 227.545 55.356,228.626 55.969,229.186 56.283 C 231.195 57.411,237.101 61.681,238.009 62.663 C 238.071 62.730,239.028 63.599,240.136 64.594 C 246.364 70.187,253.509 80.544,256.156 87.814 C 256.504 88.770,258.416 94.583,258.491 94.915 C 258.526 95.068,259.343 95.091,260.890 94.984 C 283.574 93.408,304.733 110.315,308.647 133.145 C 313.127 159.275,292.613 184.798,266.233 185.916 L 263.348 186.038 263.348 199.864 C 263.348 215.702,263.401 215.294,261.068 217.629 C 256.153 222.550,244.840 223.101,232.579 219.015 C 209.134 211.203,182.274 211.104,159.154 218.746 C 144.911 223.454,132.939 222.516,128.704 216.360 C 127.395 214.457,127.381 214.287,127.378 199.525 L 127.376 186.041 124.491 185.909 C 104.924 185.010,86.646 169.436,82.689 150.291 C 80.357 139.006,82.391 125.990,87.792 117.647 C 87.993 117.336,88.554 116.471,89.038 115.724 C 97.605 102.520,112.390 94.753,128.375 95.061 L 132.262 95.136 133.228 92.195 C 143.196 61.875,172.779 43.239,204.126 47.533 M188.641 57.812 C 169.416 59.909,151.597 73.557,144.489 91.629 C 139.873 103.364,139.525 117.260,143.558 128.733 C 144.863 132.448,145.015 132.815,146.252 135.271 C 148.884 140.496,148.845 140.490,148.276 135.608 C 143.657 95.960,180.990 59.730,221.023 65.011 C 222.569 65.215,223.868 65.348,223.909 65.306 C 224.039 65.177,217.170 61.822,215.498 61.197 C 206.632 57.885,197.974 56.793,188.641 57.812 M124.263 103.848 C 120.470 104.244,117.390 105.008,112.959 106.652 C 107.910 108.526,100.994 114.009,97.526 118.888 C 89.414 130.304,88.227 143.971,94.267 156.448 L 95.362 158.710 95.502 155.090 C 96.236 136.102,109.477 117.637,126.471 111.907 C 127.031 111.718,128.049 111.362,128.733 111.117 L 129.977 110.670 130.268 107.341 C 130.427 105.510,130.524 103.978,130.483 103.937 C 130.284 103.738,125.916 103.675,124.263 103.848 M193.943 167.403 C 192.746 167.708,191.407 168.787,190.705 170.012 L 190.049 171.154 190.049 182.014 L 190.049 192.873 190.738 194.073 C 192.789 197.651,198.096 197.684,200.184 194.134 L 200.792 193.100 200.857 182.364 L 200.922 171.628 200.231 170.224 C 199.073 167.873,196.547 166.739,193.943 167.403 M169.046 176.550 C 167.753 176.896,166.344 178.111,165.751 179.393 C 165.091 180.820,164.880 199.467,165.496 201.874 C 166.812 207.010,174.023 207.236,175.794 202.197 C 176.439 200.362,176.489 182.036,175.855 180.060 C 174.923 177.156,172.141 175.722,169.046 176.550 M218.641 176.549 C 217.115 176.977,216.116 177.813,215.379 179.278 L 214.706 180.615 214.708 191.043 L 214.710 201.471 215.241 202.602 C 217.373 207.144,224.009 206.845,225.312 202.149 C 225.657 200.905,225.661 181.347,225.316 179.978 C 224.660 177.373,221.497 175.748,218.641 176.549 " stroke="none" fill="#fb9936" fill-rule="evenodd"></path><path id="path2" d="M190.889 47.222 C 191.290 47.272,192.003 47.273,192.472 47.224 C 192.942 47.175,192.613 47.134,191.742 47.133 C 190.871 47.132,190.487 47.172,190.889 47.222 M198.128 47.222 C 198.530 47.272,199.243 47.273,199.712 47.224 C 200.182 47.175,199.853 47.134,198.982 47.133 C 198.111 47.132,197.727 47.172,198.128 47.222 M188.408 47.445 C 188.689 47.499,189.096 47.497,189.313 47.441 C 189.529 47.384,189.299 47.340,188.801 47.342 C 188.303 47.345,188.126 47.391,188.408 47.445 M201.530 47.445 C 201.811 47.499,202.218 47.497,202.435 47.441 C 202.651 47.384,202.421 47.340,201.923 47.342 C 201.425 47.345,201.248 47.391,201.530 47.445 M213.009 49.548 C 213.258 49.654,213.614 49.742,213.801 49.742 C 214.015 49.742,213.973 49.670,213.688 49.548 C 213.439 49.441,213.083 49.353,212.896 49.353 C 212.682 49.353,212.724 49.425,213.009 49.548 M224.887 54.186 C 225.198 54.363,225.554 54.509,225.679 54.509 C 225.803 54.509,225.650 54.363,225.339 54.186 C 225.028 54.008,224.672 53.862,224.548 53.862 C 224.423 53.862,224.576 54.008,224.887 54.186 M191.567 57.403 C 191.969 57.453,192.682 57.454,193.151 57.405 C 193.620 57.356,193.292 57.315,192.421 57.314 C 191.550 57.313,191.166 57.353,191.567 57.403 M197.676 57.403 C 198.078 57.453,198.790 57.454,199.260 57.405 C 199.729 57.356,199.400 57.315,198.529 57.314 C 197.658 57.313,197.274 57.353,197.676 57.403 M189.086 57.626 C 189.368 57.680,189.775 57.678,189.991 57.622 C 190.208 57.565,189.977 57.521,189.480 57.523 C 188.982 57.526,188.805 57.572,189.086 57.626 M200.962 57.622 C 201.179 57.679,201.536 57.679,201.753 57.622 C 201.971 57.565,201.793 57.519,201.357 57.519 C 200.922 57.519,200.744 57.565,200.962 57.622 M152.477 63.066 L 151.697 63.914 152.545 63.134 C 153.335 62.409,153.498 62.217,153.325 62.217 C 153.287 62.217,152.905 62.599,152.477 63.066 M239.480 64.253 C 240.092 64.876,240.645 65.385,240.707 65.385 C 240.769 65.385,240.319 64.876,239.706 64.253 C 239.093 63.631,238.541 63.122,238.479 63.122 C 238.416 63.122,238.867 63.631,239.480 64.253 M148.869 66.403 C 147.942 67.336,147.234 68.100,147.296 68.100 C 147.359 68.100,148.168 67.336,149.095 66.403 C 150.022 65.469,150.730 64.706,150.667 64.706 C 150.605 64.706,149.796 65.469,148.869 66.403 M210.238 64.872 C 210.829 64.919,211.796 64.919,212.387 64.872 C 212.978 64.826,212.494 64.787,211.312 64.787 C 210.130 64.787,209.646 64.826,210.238 64.872 M215.448 64.872 C 216.043 64.919,216.959 64.919,217.484 64.871 C 218.009 64.824,217.523 64.785,216.403 64.786 C 215.283 64.787,214.853 64.826,215.448 64.872 M242.986 67.718 C 242.986 67.757,243.317 68.088,243.722 68.453 L 244.457 69.118 243.793 68.382 C 243.173 67.697,242.986 67.543,242.986 67.718 M146.026 69.514 L 145.362 70.249 146.097 69.584 C 146.502 69.219,146.833 68.888,146.833 68.849 C 146.833 68.674,146.646 68.828,146.026 69.514 M158.470 71.324 L 157.805 72.059 158.541 71.394 C 158.945 71.029,159.276 70.698,159.276 70.659 C 159.276 70.484,159.089 70.638,158.470 71.324 M182.070 72.754 C 181.224 73.213,181.276 73.404,182.127 72.964 C 182.500 72.771,182.805 72.565,182.805 72.506 C 182.805 72.360,182.781 72.368,182.070 72.754 M139.706 78.054 C 139.513 78.428,139.406 78.733,139.468 78.733 C 139.530 78.733,139.739 78.428,139.932 78.054 C 140.125 77.681,140.232 77.376,140.170 77.376 C 140.108 77.376,139.899 77.681,139.706 78.054 M169.445 81.844 L 168.665 82.692 169.514 81.913 C 170.303 81.187,170.466 80.995,170.293 80.995 C 170.255 80.995,169.874 81.377,169.445 81.844 M164.804 86.482 C 163.470 87.907,162.804 88.688,162.923 88.688 C 162.982 88.688,163.668 87.975,164.448 87.104 C 166.000 85.371,166.243 84.946,164.804 86.482 M142.889 95.378 C 142.806 95.710,142.782 96.025,142.835 96.078 C 142.888 96.131,143.000 95.904,143.083 95.572 C 143.167 95.241,143.191 94.926,143.138 94.872 C 143.084 94.819,142.973 95.047,142.889 95.378 M125.746 95.191 C 126.779 95.233,128.407 95.233,129.366 95.191 C 130.324 95.148,129.480 95.114,127.489 95.114 C 125.498 95.114,124.714 95.149,125.746 95.191 M261.493 95.191 C 262.525 95.233,264.154 95.233,265.113 95.191 C 266.071 95.148,265.226 95.114,263.235 95.114 C 261.244 95.114,260.460 95.149,261.493 95.191 M123.702 103.780 C 123.983 103.834,124.390 103.832,124.607 103.775 C 124.823 103.719,124.593 103.674,124.095 103.677 C 123.597 103.679,123.420 103.726,123.702 103.780 M129.908 103.781 C 130.422 103.859,130.531 104.004,130.605 104.708 L 130.693 105.543 130.731 104.581 C 130.769 103.633,130.759 103.620,130.034 103.654 C 129.368 103.684,129.357 103.697,129.908 103.781 M140.781 105.995 C 140.784 106.493,140.830 106.670,140.884 106.389 C 140.938 106.107,140.936 105.700,140.879 105.484 C 140.823 105.267,140.779 105.498,140.781 105.995 M130.378 107.466 C 130.378 108.026,130.422 108.255,130.476 107.975 C 130.530 107.695,130.530 107.237,130.476 106.957 C 130.422 106.677,130.378 106.906,130.378 107.466 M140.578 109.389 C 140.577 110.509,140.616 110.996,140.663 110.471 C 140.711 109.946,140.711 109.029,140.664 108.434 C 140.618 107.840,140.579 108.269,140.578 109.389 M140.577 113.801 C 140.577 114.859,140.616 115.291,140.663 114.762 C 140.711 114.234,140.711 113.368,140.663 112.839 C 140.616 112.311,140.577 112.743,140.577 113.801 M100.785 114.762 L 99.434 116.176 100.848 114.826 C 102.162 113.572,102.366 113.348,102.199 113.348 C 102.164 113.348,101.527 113.985,100.785 114.762 M120.758 114.609 C 119.912 115.068,119.964 115.259,120.814 114.819 C 121.188 114.626,121.493 114.420,121.493 114.361 C 121.493 114.215,121.469 114.223,120.758 114.609 M140.781 117.081 C 140.784 117.579,140.830 117.756,140.884 117.475 C 140.938 117.193,140.936 116.786,140.879 116.570 C 140.823 116.353,140.779 116.584,140.781 117.081 M111.637 121.097 L 110.973 121.833 111.708 121.168 C 112.394 120.549,112.547 120.362,112.373 120.362 C 112.334 120.362,112.003 120.693,111.637 121.097 M148.252 124.887 C 148.252 125.447,148.296 125.676,148.350 125.396 C 148.404 125.116,148.404 124.658,148.350 124.378 C 148.296 124.098,148.252 124.327,148.252 124.887 M148.052 129.751 C 148.052 131.369,148.088 132.001,148.132 131.156 C 148.175 130.311,148.175 128.987,148.131 128.215 C 148.087 127.442,148.051 128.133,148.052 129.751 M148.252 134.615 C 148.252 135.175,148.296 135.404,148.350 135.124 C 148.404 134.844,148.404 134.386,148.350 134.106 C 148.296 133.826,148.252 134.055,148.252 134.615 M81.958 135.633 C 81.960 136.131,82.006 136.308,82.060 136.027 C 82.115 135.745,82.113 135.338,82.056 135.122 C 81.999 134.905,81.955 135.136,81.958 135.633 M308.888 136.991 C 308.890 137.613,308.934 137.841,308.986 137.497 C 309.038 137.153,309.036 136.644,308.983 136.366 C 308.929 136.087,308.887 136.369,308.888 136.991 M81.765 140.498 C 81.765 142.426,81.800 143.215,81.842 142.251 C 81.885 141.287,81.885 139.709,81.842 138.744 C 81.800 137.780,81.765 138.569,81.765 140.498 M90.324 142.534 C 90.324 142.969,90.371 143.148,90.427 142.930 C 90.484 142.712,90.484 142.356,90.427 142.138 C 90.371 141.920,90.324 142.098,90.324 142.534 M308.888 144.005 C 308.890 144.627,308.934 144.854,308.986 144.510 C 309.038 144.167,309.036 143.658,308.983 143.379 C 308.929 143.101,308.887 143.382,308.888 144.005 M81.958 145.362 C 81.960 145.860,82.006 146.037,82.060 145.755 C 82.115 145.474,82.113 145.067,82.056 144.850 C 81.999 144.634,81.955 144.864,81.958 145.362 M308.650 146.154 C 308.650 146.589,308.696 146.768,308.753 146.550 C 308.810 146.332,308.810 145.976,308.753 145.758 C 308.696 145.540,308.650 145.718,308.650 146.154 M95.758 152.149 C 95.761 152.647,95.807 152.824,95.861 152.543 C 95.915 152.261,95.913 151.854,95.857 151.638 C 95.800 151.421,95.756 151.652,95.758 152.149 M95.558 156.448 C 95.558 157.692,95.596 158.172,95.642 157.515 C 95.688 156.858,95.688 155.839,95.641 155.253 C 95.595 154.666,95.557 155.204,95.558 156.448 M304.335 160.304 C 303.956 161.136,304.029 161.313,304.439 160.557 C 304.630 160.204,304.744 159.872,304.692 159.821 C 304.641 159.769,304.480 159.986,304.335 160.304 M301.584 165.158 C 301.318 165.532,301.151 165.837,301.214 165.837 C 301.276 165.837,301.544 165.532,301.810 165.158 C 302.076 164.785,302.242 164.480,302.180 164.480 C 302.118 164.480,301.850 164.785,301.584 165.158 M194.856 167.131 C 195.200 167.183,195.709 167.181,195.987 167.128 C 196.266 167.074,195.984 167.031,195.362 167.033 C 194.740 167.035,194.512 167.079,194.856 167.131 M191.924 168.229 L 191.290 168.811 192.025 168.300 C 192.429 168.018,192.760 167.756,192.760 167.718 C 192.760 167.539,192.510 167.692,191.924 168.229 M297.273 170.758 L 296.493 171.606 297.342 170.827 C 298.131 170.101,298.294 169.910,298.121 169.910 C 298.083 169.910,297.702 170.291,297.273 170.758 M94.910 172.398 C 95.899 173.394,96.760 174.208,96.822 174.208 C 96.884 174.208,96.125 173.394,95.136 172.398 C 94.146 171.403,93.286 170.588,93.223 170.588 C 93.161 170.588,93.920 171.403,94.910 172.398 M201.009 182.014 C 201.009 187.738,201.039 190.047,201.074 187.145 C 201.110 184.243,201.110 179.560,201.074 176.738 C 201.039 173.916,201.009 176.290,201.009 182.014 M293.879 174.152 L 293.100 175.000 294.002 174.208 C 294.498 173.773,294.948 173.391,295.001 173.360 C 295.054 173.329,294.999 173.303,294.878 173.303 C 294.758 173.303,294.308 173.685,293.879 174.152 M170.195 176.180 C 170.539 176.232,171.048 176.231,171.327 176.177 C 171.605 176.124,171.324 176.081,170.701 176.083 C 170.079 176.085,169.852 176.128,170.195 176.180 M219.743 176.180 C 220.087 176.232,220.596 176.231,220.874 176.177 C 221.152 176.124,220.871 176.081,220.249 176.083 C 219.627 176.085,219.399 176.128,219.743 176.180 M225.670 191.063 C 225.670 197.036,225.699 199.447,225.735 196.421 C 225.771 193.395,225.771 188.508,225.735 185.561 C 225.699 182.615,225.670 185.090,225.670 191.063 M214.584 191.063 C 214.584 196.787,214.613 199.097,214.649 196.195 C 214.685 193.293,214.685 188.610,214.649 185.788 C 214.613 182.965,214.584 185.339,214.584 191.063 M165.036 191.063 C 165.036 196.663,165.066 198.921,165.102 196.082 C 165.138 193.242,165.138 188.661,165.102 185.901 C 165.066 183.141,165.036 185.464,165.036 191.063 M275.452 184.163 C 275.167 184.285,275.125 184.357,275.339 184.357 C 275.526 184.357,275.882 184.270,276.131 184.163 C 276.416 184.040,276.458 183.968,276.244 183.968 C 276.058 183.968,275.701 184.056,275.452 184.163 M125.852 185.909 C 126.195 185.961,126.704 185.960,126.983 185.906 C 127.261 185.852,126.980 185.810,126.357 185.811 C 125.735 185.813,125.508 185.857,125.852 185.909 M263.857 185.909 C 264.200 185.960,264.760 185.960,265.102 185.909 C 265.444 185.857,265.164 185.814,264.480 185.814 C 263.795 185.814,263.515 185.857,263.857 185.909 M194.856 196.995 C 195.200 197.047,195.709 197.046,195.987 196.992 C 196.266 196.938,195.984 196.896,195.362 196.897 C 194.740 196.899,194.512 196.943,194.856 196.995 M224.081 204.355 L 223.416 205.090 224.152 204.426 C 224.556 204.061,224.887 203.730,224.887 203.691 C 224.887 203.516,224.700 203.670,224.081 204.355 M193.168 213.065 C 194.450 213.105,196.486 213.105,197.693 213.064 C 198.900 213.024,197.851 212.991,195.362 212.991 C 192.873 212.991,191.886 213.024,193.168 213.065 M186.708 213.287 C 187.175 213.336,187.938 213.336,188.405 213.287 C 188.872 213.238,188.490 213.198,187.557 213.198 C 186.623 213.198,186.242 213.238,186.708 213.287 M202.438 213.288 C 202.970 213.336,203.785 213.335,204.248 213.287 C 204.711 213.238,204.276 213.199,203.281 213.200 C 202.285 213.201,201.906 213.240,202.438 213.288 M183.544 213.511 C 183.888 213.563,184.397 213.561,184.675 213.508 C 184.953 213.454,184.672 213.411,184.050 213.413 C 183.428 213.415,183.200 213.459,183.544 213.511 M206.278 213.508 C 206.558 213.562,207.016 213.562,207.296 213.508 C 207.576 213.454,207.347 213.410,206.787 213.410 C 206.227 213.410,205.998 213.454,206.278 213.508 M260.736 217.704 L 259.842 218.665 260.803 217.771 C 261.697 216.939,261.869 216.742,261.697 216.742 C 261.661 216.742,261.228 217.175,260.736 217.704 M229.072 217.873 C 229.321 217.980,229.678 218.068,229.864 218.068 C 230.078 218.068,230.036 217.996,229.751 217.873 C 229.502 217.766,229.146 217.679,228.959 217.679 C 228.745 217.679,228.787 217.751,229.072 217.873 M138.744 221.423 C 138.962 221.480,139.318 221.480,139.536 221.423 C 139.754 221.366,139.576 221.319,139.140 221.319 C 138.705 221.319,138.527 221.366,138.744 221.423 M147.115 221.423 C 147.333 221.480,147.689 221.480,147.907 221.423 C 148.125 221.366,147.947 221.319,147.511 221.319 C 147.076 221.319,146.898 221.366,147.115 221.423 M242.933 221.427 C 243.214 221.481,243.621 221.479,243.837 221.422 C 244.054 221.366,243.824 221.322,243.326 221.324 C 242.828 221.327,242.651 221.373,242.933 221.427 M251.414 221.423 C 251.632 221.480,251.988 221.480,252.206 221.423 C 252.424 221.366,252.245 221.319,251.810 221.319 C 251.374 221.319,251.196 221.366,251.414 221.423 M141.799 221.661 C 142.576 221.705,143.849 221.705,144.627 221.661 C 145.404 221.617,144.768 221.580,143.213 221.580 C 141.657 221.580,141.021 221.617,141.799 221.661 M246.097 221.661 C 246.875 221.705,248.148 221.705,248.925 221.661 C 249.703 221.617,249.067 221.580,247.511 221.580 C 245.956 221.580,245.320 221.617,246.097 221.661 M185.577 238.844 C 185.795 238.901,186.151 238.901,186.369 238.844 C 186.587 238.787,186.408 238.740,185.973 238.740 C 185.537 238.740,185.359 238.787,185.577 238.844 M156.434 240.781 L 155.769 241.516 156.505 240.851 C 156.909 240.486,157.240 240.155,157.240 240.116 C 157.240 239.941,157.053 240.095,156.434 240.781 M179.238 244.796 C 179.238 245.232,179.285 245.410,179.341 245.192 C 179.398 244.975,179.398 244.618,179.341 244.400 C 179.285 244.183,179.238 244.361,179.238 244.796 M203.957 293.100 C 203.957 319.729,203.984 330.589,204.016 317.233 C 204.048 303.878,204.048 282.090,204.016 268.817 C 203.984 255.543,203.957 266.471,203.957 293.100 M242.193 307.127 C 242.193 341.346,242.219 355.311,242.251 338.160 C 242.283 321.010,242.283 293.012,242.251 275.943 C 242.219 258.875,242.193 272.907,242.193 307.127 M167.984 293.665 C 167.984 320.107,168.011 330.925,168.043 317.704 C 168.075 304.482,168.075 282.848,168.043 269.627 C 168.011 256.406,167.984 267.223,167.984 293.665 M177.474 344.627 L 176.810 345.362 177.545 344.697 C 177.950 344.332,178.281 344.001,178.281 343.962 C 178.281 343.787,178.094 343.941,177.474 344.627 M193.665 343.962 C 193.665 344.001,193.996 344.332,194.400 344.697 L 195.136 345.362 194.471 344.627 C 193.852 343.941,193.665 343.787,193.665 343.962 M227.022 344.627 L 226.357 345.362 227.093 344.697 C 227.497 344.332,227.828 344.001,227.828 343.962 C 227.828 343.787,227.641 343.941,227.022 344.627 M173.249 346.314 C 173.531 346.368,173.938 346.366,174.154 346.309 C 174.371 346.253,174.140 346.208,173.643 346.211 C 173.145 346.213,172.968 346.260,173.249 346.314 M197.910 346.314 C 198.191 346.368,198.599 346.366,198.815 346.309 C 199.031 346.253,198.801 346.208,198.303 346.211 C 197.805 346.213,197.628 346.260,197.910 346.314 M222.571 346.314 C 222.852 346.368,223.259 346.366,223.475 346.309 C 223.692 346.253,223.462 346.208,222.964 346.211 C 222.466 346.213,222.289 346.260,222.571 346.314 M154.587 370.814 C 154.587 371.374,154.631 371.604,154.685 371.324 C 154.738 371.044,154.738 370.585,154.685 370.305 C 154.631 370.025,154.587 370.255,154.587 370.814 M230.983 396.550 L 230.204 397.398 231.052 396.619 C 231.519 396.190,231.900 395.808,231.900 395.770 C 231.900 395.597,231.709 395.760,230.983 396.550 M168.778 399.887 C 170.704 401.816,172.330 403.394,172.393 403.394 C 172.455 403.394,170.930 401.816,169.005 399.887 C 167.079 397.958,165.452 396.380,165.390 396.380 C 165.328 396.380,166.853 397.958,168.778 399.887 M226.239 401.301 L 224.321 403.281 226.301 401.362 C 228.140 399.581,228.384 399.321,228.219 399.321 C 228.185 399.321,227.294 400.212,226.239 401.301 M190.568 447.398 C 190.569 448.145,190.611 448.423,190.662 448.016 C 190.712 447.610,190.711 446.999,190.659 446.659 C 190.608 446.319,190.567 446.652,190.568 447.398 M205.977 451.357 C 205.977 453.784,206.010 454.777,206.051 453.563 C 206.092 452.350,206.092 450.365,206.051 449.152 C 206.010 447.938,205.977 448.931,205.977 451.357 M190.581 455.430 C 190.581 456.736,190.619 457.271,190.665 456.618 C 190.710 455.964,190.710 454.895,190.665 454.242 C 190.619 453.589,190.581 454.123,190.581 455.430 M206.185 462.217 C 206.185 463.150,206.225 463.532,206.273 463.066 C 206.322 462.599,206.322 461.835,206.273 461.369 C 206.225 460.902,206.185 461.284,206.185 462.217 M190.349 464.367 C 190.350 465.362,190.390 465.741,190.437 465.209 C 190.485 464.677,190.485 463.862,190.436 463.399 C 190.387 462.936,190.348 463.371,190.349 464.367 M206.407 470.362 C 206.407 471.171,206.448 471.502,206.499 471.097 C 206.549 470.693,206.549 470.031,206.499 469.627 C 206.448 469.222,206.407 469.553,206.407 470.362 M190.118 472.624 C 190.118 473.433,190.159 473.764,190.209 473.360 C 190.259 472.955,190.259 472.294,190.209 471.889 C 190.159 471.485,190.118 471.816,190.118 472.624 M206.640 478.959 C 206.640 480.017,206.679 480.450,206.727 479.921 C 206.774 479.392,206.774 478.527,206.727 477.998 C 206.679 477.469,206.640 477.902,206.640 478.959 M189.895 480.769 C 189.895 481.702,189.935 482.084,189.984 481.618 C 190.033 481.151,190.033 480.387,189.984 479.921 C 189.935 479.454,189.895 479.836,189.895 480.769 M206.874 488.122 C 206.874 489.615,206.911 490.197,206.955 489.414 C 206.999 488.632,206.999 487.410,206.954 486.699 C 206.910 485.989,206.873 486.629,206.874 488.122 M189.679 490.385 C 189.680 491.878,189.716 492.459,189.761 491.677 C 189.805 490.894,189.804 489.672,189.760 488.962 C 189.715 488.251,189.679 488.891,189.679 490.385 M207.099 497.285 C 207.099 498.716,207.136 499.301,207.181 498.586 C 207.226 497.870,207.226 496.700,207.181 495.984 C 207.136 495.269,207.099 495.854,207.099 497.285 M189.451 499.661 C 189.452 501.029,189.489 501.560,189.534 500.840 C 189.579 500.120,189.579 499.000,189.533 498.351 C 189.487 497.703,189.451 498.292,189.451 499.661 M207.317 506.222 C 207.318 507.217,207.358 507.596,207.406 507.064 C 207.454 506.532,207.453 505.718,207.404 505.254 C 207.356 504.791,207.317 505.226,207.317 506.222 M189.216 508.597 C 189.216 509.531,189.256 509.912,189.305 509.446 C 189.354 508.979,189.354 508.215,189.305 507.749 C 189.256 507.282,189.216 507.664,189.216 508.597 M207.538 514.480 C 207.538 515.288,207.580 515.619,207.630 515.215 C 207.680 514.811,207.680 514.149,207.630 513.744 C 207.580 513.340,207.538 513.671,207.538 514.480 M188.986 516.742 C 188.986 517.551,189.028 517.882,189.078 517.477 C 189.128 517.073,189.128 516.411,189.078 516.007 C 189.028 515.602,188.986 515.933,188.986 516.742 M207.768 522.624 C 207.768 523.558,207.808 523.939,207.857 523.473 C 207.906 523.006,207.906 522.243,207.857 521.776 C 207.808 521.309,207.768 521.691,207.768 522.624 M188.764 524.887 C 188.764 525.820,188.804 526.202,188.853 525.735 C 188.901 525.269,188.901 524.505,188.853 524.038 C 188.804 523.572,188.764 523.954,188.764 524.887 M208.003 531.561 C 208.004 532.930,208.041 533.461,208.086 532.741 C 208.131 532.021,208.131 530.901,208.085 530.252 C 208.040 529.603,208.003 530.192,208.003 531.561 M188.545 533.937 C 188.545 535.243,188.583 535.778,188.628 535.124 C 188.674 534.471,188.674 533.402,188.628 532.749 C 188.583 532.096,188.545 532.630,188.545 533.937 M208.215 539.253 C 208.216 540.000,208.258 540.278,208.309 539.872 C 208.359 539.465,208.358 538.854,208.306 538.514 C 208.255 538.174,208.214 538.507,208.215 539.253 " stroke="none" fill="#985c31" fill-rule="evenodd"></path><path id="path3" d="M309.131 140.498 C 309.131 141.680,309.169 142.163,309.216 141.572 C 309.263 140.981,309.263 140.014,309.216 139.423 C 309.169 138.832,309.131 139.316,309.131 140.498 M217.532 295.362 C 217.532 320.747,217.558 331.098,217.590 318.364 C 217.623 305.631,217.623 284.862,217.590 272.210 C 217.558 259.559,217.532 269.977,217.532 295.362 M190.581 450.905 C 190.581 452.212,190.619 452.746,190.665 452.093 C 190.710 451.439,190.710 450.370,190.665 449.717 C 190.619 449.064,190.581 449.598,190.581 450.905 M206.161 459.955 C 206.161 460.390,206.208 460.568,206.265 460.351 C 206.321 460.133,206.321 459.777,206.265 459.559 C 206.208 459.341,206.161 459.519,206.161 459.955 M206.844 484.729 C 206.847 485.226,206.893 485.403,206.947 485.122 C 207.001 484.840,206.999 484.433,206.943 484.217 C 206.886 484.001,206.842 484.231,206.844 484.729 M207.081 493.665 C 207.081 494.350,207.124 494.630,207.176 494.287 C 207.227 493.945,207.227 493.385,207.176 493.043 C 207.124 492.701,207.081 492.981,207.081 493.665 M189.424 496.493 C 189.426 496.991,189.472 497.168,189.527 496.887 C 189.581 496.605,189.579 496.198,189.522 495.982 C 189.465 495.765,189.421 495.995,189.424 496.493 M207.976 528.394 C 207.978 528.891,208.024 529.068,208.079 528.787 C 208.133 528.506,208.131 528.098,208.074 527.882 C 208.017 527.666,207.973 527.896,207.976 528.394 M208.210 536.991 C 208.211 537.613,208.255 537.841,208.307 537.497 C 208.359 537.153,208.358 536.644,208.304 536.366 C 208.250 536.087,208.208 536.369,208.210 536.991 " stroke="none" fill="#bd653d" fill-rule="evenodd"></path><path id="path4" d="M194.070 47.000 C 194.853 47.045,196.074 47.044,196.785 47.000 C 197.496 46.955,196.855 46.919,195.362 46.919 C 193.869 46.919,193.287 46.956,194.070 47.000 M195.079 57.396 C 195.297 57.453,195.653 57.453,195.871 57.396 C 196.089 57.339,195.911 57.292,195.475 57.292 C 195.040 57.292,194.861 57.339,195.079 57.396 M212.613 64.646 C 213.266 64.692,214.335 64.692,214.989 64.646 C 215.642 64.601,215.107 64.563,213.801 64.563 C 212.494 64.563,211.960 64.601,212.613 64.646 M156.335 73.416 C 155.785 73.976,155.387 74.434,155.449 74.434 C 155.511 74.434,156.012 73.976,156.561 73.416 C 157.111 72.856,157.509 72.398,157.447 72.398 C 157.385 72.398,156.884 72.856,156.335 73.416 M165.710 85.351 L 165.045 86.086 165.781 85.421 C 166.185 85.056,166.516 84.725,166.516 84.686 C 166.516 84.511,166.329 84.665,165.710 85.351 M262.729 94.959 C 263.073 95.011,263.582 95.009,263.861 94.956 C 264.139 94.902,263.857 94.859,263.235 94.861 C 262.613 94.863,262.385 94.907,262.729 94.959 M130.087 109.435 C 130.027 110.207,130.060 110.756,130.160 110.655 C 130.260 110.554,130.310 109.923,130.270 109.252 L 130.197 108.032 130.087 109.435 M110.506 122.002 L 109.842 122.738 110.577 122.073 C 111.262 121.454,111.416 121.267,111.241 121.267 C 111.202 121.267,110.872 121.598,110.506 122.002 M189.923 182.127 C 189.923 187.788,189.953 190.105,189.988 187.274 C 190.024 184.443,190.024 179.811,189.988 176.980 C 189.953 174.149,189.923 176.465,189.923 182.127 M123.475 185.907 C 123.757 185.961,124.164 185.959,124.380 185.902 C 124.597 185.845,124.367 185.801,123.869 185.804 C 123.371 185.806,123.194 185.853,123.475 185.907 M266.688 185.907 C 266.970 185.961,267.377 185.959,267.593 185.902 C 267.809 185.845,267.579 185.801,267.081 185.804 C 266.584 185.806,266.407 185.853,266.688 185.907 M127.482 199.661 C 127.482 207.251,127.510 210.324,127.545 206.488 C 127.580 202.653,127.580 196.443,127.545 192.687 C 127.510 188.932,127.482 192.070,127.482 199.661 M190.331 213.285 C 190.675 213.337,191.184 213.335,191.462 213.281 C 191.741 213.228,191.459 213.185,190.837 213.187 C 190.215 213.189,189.987 213.233,190.331 213.285 M199.607 213.285 C 199.951 213.337,200.460 213.335,200.738 213.281 C 201.017 213.228,200.735 213.185,200.113 213.187 C 199.491 213.189,199.263 213.233,199.607 213.285 M182.636 213.731 C 182.854 213.788,183.210 213.788,183.428 213.731 C 183.645 213.674,183.467 213.627,183.032 213.627 C 182.596 213.627,182.418 213.674,182.636 213.731 M207.638 213.735 C 207.920 213.789,208.327 213.787,208.543 213.730 C 208.760 213.673,208.529 213.629,208.032 213.632 C 207.534 213.634,207.357 213.681,207.638 213.735 M214.706 240.116 C 214.706 240.155,215.037 240.486,215.441 240.851 L 216.176 241.516 215.512 240.781 C 214.893 240.095,214.706 239.941,214.706 240.116 M230.642 240.781 L 229.977 241.516 230.713 240.851 C 231.117 240.486,231.448 240.155,231.448 240.116 C 231.448 239.941,231.261 240.095,230.642 240.781 M217.503 247.172 C 217.504 248.416,217.542 248.896,217.588 248.239 C 217.634 247.582,217.633 246.563,217.587 245.977 C 217.540 245.390,217.503 245.928,217.503 247.172 M242.143 370.588 C 242.143 371.148,242.187 371.377,242.241 371.097 C 242.295 370.817,242.295 370.359,242.241 370.079 C 242.187 369.799,242.143 370.028,242.143 370.588 M229.293 398.473 L 227.715 400.113 229.355 398.535 C 230.879 397.070,231.099 396.833,230.933 396.833 C 230.898 396.833,230.160 397.571,229.293 398.473 M206.173 446.719 C 206.175 447.342,206.219 447.569,206.271 447.225 C 206.323 446.881,206.322 446.372,206.268 446.094 C 206.214 445.816,206.172 446.097,206.173 446.719 M206.194 456.787 C 206.194 458.218,206.231 458.804,206.276 458.088 C 206.321 457.373,206.321 456.202,206.276 455.486 C 206.231 454.771,206.194 455.356,206.194 456.787 M190.352 460.068 C 190.351 461.188,190.389 461.674,190.437 461.149 C 190.484 460.624,190.485 459.708,190.438 459.113 C 190.391 458.518,190.352 458.948,190.352 460.068 M206.614 475.339 C 206.614 475.775,206.660 475.953,206.717 475.735 C 206.774 475.518,206.774 475.161,206.717 474.943 C 206.660 474.726,206.614 474.904,206.614 475.339 M189.871 477.828 C 189.871 478.264,189.918 478.442,189.975 478.224 C 190.032 478.006,190.032 477.650,189.975 477.432 C 189.918 477.214,189.871 477.393,189.871 477.828 M206.849 483.032 C 206.849 483.592,206.893 483.821,206.947 483.541 C 207.001 483.261,207.001 482.803,206.947 482.523 C 206.893 482.243,206.849 482.472,206.849 483.032 M189.657 485.860 C 189.659 486.482,189.703 486.710,189.755 486.366 C 189.807 486.022,189.806 485.513,189.752 485.234 C 189.698 484.956,189.656 485.238,189.657 485.860 M207.084 491.290 C 207.085 492.036,207.127 492.314,207.178 491.908 C 207.228 491.501,207.227 490.890,207.175 490.550 C 207.124 490.210,207.082 490.543,207.084 491.290 M189.439 494.344 C 189.439 495.153,189.480 495.484,189.530 495.079 C 189.580 494.675,189.580 494.013,189.530 493.609 C 189.480 493.204,189.439 493.535,189.439 494.344 M207.325 500.905 C 207.325 502.336,207.362 502.921,207.407 502.206 C 207.452 501.490,207.452 500.320,207.407 499.604 C 207.362 498.889,207.325 499.474,207.325 500.905 M189.219 504.299 C 189.219 505.356,189.258 505.789,189.306 505.260 C 189.354 504.731,189.354 503.866,189.306 503.337 C 189.258 502.808,189.219 503.241,189.219 504.299 M188.740 521.946 C 188.740 522.381,188.787 522.559,188.844 522.342 C 188.901 522.124,188.901 521.768,188.844 521.550 C 188.787 521.332,188.740 521.510,188.740 521.946 M207.971 526.923 C 207.971 527.359,208.018 527.537,208.075 527.319 C 208.131 527.101,208.131 526.745,208.075 526.527 C 208.018 526.309,207.971 526.488,207.971 526.923 M188.519 529.751 C 188.521 530.249,188.567 530.426,188.622 530.144 C 188.676 529.863,188.674 529.456,188.617 529.239 C 188.560 529.023,188.516 529.253,188.519 529.751 M208.210 534.955 C 208.211 535.577,208.255 535.805,208.307 535.461 C 208.359 535.117,208.358 534.608,208.304 534.329 C 208.250 534.051,208.208 534.333,208.210 534.955 " stroke="none" fill="#cb7a33" fill-rule="evenodd"></path></g></svg>